<?xml version="1.0" encoding="UTF-8"?>
<svg width="92px" height="92px" viewBox="0 0 92 92" version="1.1" xmlns="http://www.w3.org/2000/svg" xmlns:xlink="http://www.w3.org/1999/xlink">
    <!-- Generator: Sketch 48.1 (47250) - http://www.bohemiancoding.com/sketch -->
    <title>Page 1</title>
    <desc>Created with Sketch.</desc>
    <defs>
        <polygon id="path-1" points="45.8188794 0.359636364 91.6376183 0.359636364 91.6376183 91.3030303 45.8188794 91.3030303 0.000140458015 91.3030303 0.000140458015 0.359636364"></polygon>
    </defs>
    <g id="Symbols" stroke="none" stroke-width="1" fill="none" fill-rule="evenodd">
        <g id="Page-1">
            <polygon id="Fill-1" fill="#FEFEFE" points="8.42130076 53.1312545 10.2233771 52.1074061 8.18392672 51.7164061"></polygon>
            <g id="Group-63" transform="translate(0.000000, 0.337333)">
                <path d="M37.8482382,80.7932152 L37.1087267,80.6329121 L36.5377649,83.2151848 L37.2779786,83.3768818 C38.0961466,83.5553061 38.6994137,83.0750939 38.8553221,82.3697606 C39.014742,81.647003 38.6895817,80.9765182 37.8482382,80.7932152" id="Fill-2" fill="#FEFEFE"></path>
                <path d="M33.6893466,79.5959606 L32.8206137,79.2844152 L32.4034534,80.4267485 L33.2728885,80.7396879 C33.6317588,80.8686273 33.9751786,80.7355061 34.1008885,80.3905061 C34.2265985,80.0455061 34.0482168,79.725597 33.6893466,79.5959606" id="Fill-4" fill="#FEFEFE"></path>
                <path d="M48.9524977,81.4758273 C48.1757649,81.5427364 47.7312153,82.1734939 47.7993374,82.9631606 C47.8681618,83.7465545 48.4138412,84.2978576 49.1912763,84.2316455 C49.9630931,84.1654333 50.4125588,83.5277061 50.3451389,82.7450091 C50.2770168,81.9560394 49.7250168,81.4103121 48.9524977,81.4758273" id="Fill-6" fill="#FEFEFE"></path>
                <polygon id="Fill-8" fill="#FEFEFE" points="29.0153954 79.7123545 29.2689221 77.6639606 27.7309069 79.0516273"></polygon>
                <polygon id="Fill-10" fill="#FEFEFE" points="64.0812305 11.7714 62.135887 13.4817636 63.7314901 14.3271879"></polygon>
                <path d="M27.3831328,15.8035091 C28.2104305,15.3023879 28.3565069,14.3391758 27.8403237,13.5000242 C27.320629,12.653903 26.3964153,12.3479333 25.567713,12.8490545 C24.7347969,13.3529636 24.5908275,14.3071152 25.1112244,15.1518424 C25.6274076,15.9923879 26.5495145,16.3088121 27.3831328,15.8035091" id="Fill-12" fill="#FEFEFE"></path>
                <polygon id="Fill-14" fill="#FEFEFE" points="52.3014382 7.79170303 51.005713 10.0282788 52.7881252 10.3251879"></polygon>
                <path d="M70.0685344,74.488497 L69.2124427,75.1903455 L69.8943664,76.0071939 L70.7497557,75.3060424 C71.0348855,75.0725576 71.0756183,74.7791333 70.8614198,74.5219515 C70.6774198,74.3003152 70.3670076,74.2424667 70.0685344,74.488497" id="Fill-16" fill="#FEFEFE"></path>
                <path d="M84.671884,52.5869909 C84.5503878,53.2811727 84.2175023,53.7418697 83.800342,54.0122939 L83.3522809,53.5571727 C83.6774412,53.3452939 83.9927695,52.9807788 84.0854718,52.4559606 C84.1809832,51.9137182 83.9513344,51.6523545 83.7006168,51.6091424 C83.3593038,51.550597 83.1865405,51.9339303 82.9870901,52.3695364 C82.7244336,52.9591727 82.415426,53.6505667 81.6134107,53.5111727 C80.9869679,53.4031424 80.5993038,52.7716879 80.7439756,51.9464758 C80.8479145,51.3603242 81.1182962,50.9184455 81.522113,50.6271121 L81.9505099,51.0912939 C81.6028763,51.3345364 81.3957008,51.710203 81.326174,52.1060818 C81.2573496,52.4956879 81.4020214,52.7765667 81.6864489,52.8260515 C81.9828153,52.8776273 82.1464489,52.5103242 82.3388763,52.0830818 C82.6078534,51.4906576 82.9309069,50.7839303 83.7568,50.9268091 C84.3881588,51.0362333 84.8509679,51.5701121 84.671884,52.5869909 L84.671884,52.5869909 Z M83.1689832,58.2812333 L79.4784489,57.1779303 L80.2397313,54.6681424 L80.8106931,54.8389 L80.2432427,56.7053848 L81.2011664,56.9918394 L81.7559756,55.1636879 L82.3255328,55.3330515 L81.7707237,57.1619 L82.7946626,57.4685667 L83.3614107,55.6013848 L83.9316702,55.7714455 L83.1689832,58.2812333 Z M82.187884,60.8516576 L78.8000366,61.5374758 L81.3662046,62.6763242 L81.0895023,63.2889606 L77.5682198,61.7256576 L77.8512427,61.0976879 L81.1534107,60.4188394 L78.6560672,59.3106576 L78.9320672,58.6980212 L82.4540519,60.2599303 L82.187884,60.8516576 Z M79.7418076,65.6753848 L76.4038229,63.7601121 L76.7416244,63.1795364 L80.0810137,65.0934152 L79.7418076,65.6753848 Z M77.9853802,68.4841727 C77.5731359,69.0591727 77.0724031,69.3323848 76.5772885,69.398597 L76.3715176,68.7957182 C76.7563725,68.7434455 77.2002198,68.5496879 77.5120366,68.1147788 C77.8336855,67.6666273 77.7395786,67.3313848 77.5317008,67.1857182 C77.2493802,66.9856879 76.927029,67.258203 76.5555176,67.5669606 C76.0639145,67.9872333 75.4838229,68.4792939 74.8194565,68.0102333 C74.3011664,67.6443242 74.2260214,66.9076273 74.7148153,66.2252939 C75.0638534,65.7388091 75.4999756,65.4558394 75.9915786,65.3659303 L76.1762809,65.9681121 C75.757716,66.0385061 75.406571,66.2908091 75.1720061,66.6176879 C74.9409527,66.9403848 74.9486779,67.2561121 75.183945,67.4219909 C75.4297466,67.5948394 75.7366473,67.3334758 76.0962198,67.0309909 C76.5962504,66.6093242 77.1953038,66.109597 77.8793344,66.592597 C78.4018382,66.9612939 78.587945,67.6422333 77.9853802,68.4841727 L77.9853802,68.4841727 Z M74.7681893,72.4095061 C74.0069069,73.2263545 73.1627542,73.1942939 72.4667847,72.5558697 L70.7531969,70.9828091 L71.2160061,70.4851727 L72.9127389,72.043597 C73.3629069,72.456203 73.8882198,72.4764152 74.3271511,72.0045667 C74.7632733,71.536203 74.702174,71.0190515 74.2513038,70.6064455 L72.5531664,69.0487182 L73.0166779,68.5510818 L74.7274565,70.1213545 C75.4325557,70.7681424 75.5266626,71.5961424 74.7681893,72.4095061 L74.7681893,72.4095061 Z M71.2539298,75.6587788 L69.7524336,76.8896273 L67.2965252,73.9421424 L68.7579908,72.7433545 C69.3008611,72.2972939 69.8837618,72.3851121 70.2299908,72.8005061 C70.5389985,73.1719909 70.5045863,73.6166576 70.276342,73.9010212 C70.6331053,73.6898394 71.1535023,73.7922939 71.455487,74.1540212 C71.8347237,74.6098394 71.8108458,75.2022636 71.2539298,75.6587788 L71.2539298,75.6587788 Z M64.659426,78.6487788 C64.3440977,78.827203 63.9416855,78.7184758 63.7640061,78.4104152 C63.5849221,78.0967788 63.6937771,77.6981121 64.0098076,77.5189909 C64.3258382,77.3405667 64.7275481,77.4492939 64.9073344,77.7629303 C65.0850137,78.0709909 64.9754565,78.4703545 64.659426,78.6487788 L64.659426,78.6487788 Z M60.0966473,82.2667485 L58.3254718,81.1885364 L58.1449832,81.6687485 L58.5635481,82.8173545 L57.9279756,83.0452636 L56.6160977,79.4489 L57.2516702,79.2209909 L57.8774107,80.9355364 L58.6695939,78.7108091 L59.4575634,78.4278394 L58.6049832,80.6553545 L60.8775939,81.9858697 L60.0966473,82.2667485 Z M55.3182656,83.7652333 L54.1644031,82.5601727 L53.510571,82.7065364 L53.8287084,84.1011727 L53.169258,84.2489303 L52.3159756,80.5152636 L53.9677618,80.1437788 C54.7128916,79.9765061 55.307029,80.3479909 55.4650443,81.036597 C55.6174412,81.702203 55.2592733,82.1608091 54.8245557,82.3350515 L56.0788458,83.5944758 L55.3182656,83.7652333 Z M49.2434565,84.8260212 C48.0917008,84.9242939 47.2068153,84.1597182 47.1084947,83.0222636 C47.010174,81.8841121 47.7496855,80.9794455 48.9007389,80.8818697 C50.0524947,80.7829 50.9380824,81.5488697 51.0364031,82.6863242 C51.135426,83.8237788 50.3952122,84.7277485 49.2434565,84.8260212 L49.2434565,84.8260212 Z M44.6645252,84.9159303 L43.9439756,84.8678394 L43.3835481,82.0060818 L42.4523115,84.7702636 L41.7310595,84.7214758 L40.8862046,80.8358697 L41.6411664,80.8853545 L42.1938687,83.8739606 L43.1855023,80.9871121 L43.7213496,81.0226576 L44.3197008,84.0147485 L45.2593649,81.1244152 L46.015029,81.1739 L44.6645252,84.9159303 Z M39.5328916,82.5169606 C39.2891969,83.6153848 38.3242504,84.209203 37.1500214,83.9534152 L35.7503573,83.6481424 L36.5762504,79.9109909 L37.9759145,80.2169606 C39.1508458,80.4720515 39.7751817,81.4185364 39.5328916,82.5169606 L39.5328916,82.5169606 Z M34.7531053,80.6246879 C34.5192427,81.2659 33.9693496,81.4596576 33.5086473,81.3739303 L33.8794565,83.1045061 L33.1462656,82.8403545 L32.8316397,81.2087485 L32.2009832,80.9829303 L31.711487,82.3259909 L31.0766168,82.0973848 L32.3870901,78.5010212 L33.9791817,79.0725364 C34.6969221,79.3297182 34.9953954,79.9611727 34.7531053,80.6246879 L34.7531053,80.6246879 Z M29.4796092,81.4436273 L28.8222656,81.1062939 L28.9107542,80.3242939 L27.2877618,79.4907182 L26.6957313,80.0134455 L26.0383878,79.6754152 L29.157258,76.9662939 L29.9080061,77.3517182 L29.4796092,81.4436273 Z M23.9982351,78.3755667 L24.9659908,77.011597 L23.3282504,75.8643848 L22.3590901,77.2283545 L21.8070901,76.8422333 L24.0277313,73.7163242 L24.5797313,74.1038394 L23.6716702,75.3827788 L25.3094107,76.5292939 L26.2188763,75.2496576 L26.7708763,75.6357788 L24.5502351,78.7623848 L23.9982351,78.3755667 Z M19.6953038,72.4018394 C19.4410748,72.6513545 19.0239145,72.6499606 18.7682809,72.3934758 C18.5126473,72.1362939 18.5147542,71.7229909 18.7689832,71.4734758 C19.027426,71.2190818 19.4445863,71.2211727 19.7002198,71.4776576 C19.9565557,71.7348394 19.9544489,72.1474455 19.6953038,72.4018394 L19.6953038,72.4018394 Z M15.0173496,67.535597 L13.7047695,68.4437485 L13.3185099,67.8931424 L14.6317924,66.9849909 L15.6241282,64.4877485 L16.066571,65.1178091 L15.3193344,66.9215667 L17.2759145,66.8407182 L17.7190595,67.4707788 L15.0173496,67.535597 Z M12.1042504,66.0573242 L10.941258,64.0033545 L14.2989069,62.1312939 L14.6303878,62.7160515 L11.7917313,64.2995667 L12.6218382,65.7680818 L12.1042504,66.0573242 Z M9.7817771,61.5890515 L13.2932275,60.0159909 L13.5720366,60.6279303 L10.059884,62.2002939 L9.7817771,61.5890515 Z M8.73255573,59.0513848 L11.5129221,58.1683242 L8.37087634,57.9313545 L8.28238779,57.6581424 L10.7031817,55.6599303 L7.92281527,56.5436879 L7.71704427,55.9045667 L11.3893191,54.7371424 L11.6800672,55.6390212 L9.5268458,57.4135061 L12.3205557,57.622597 L12.6098992,58.5244758 L8.93832672,59.691203 L8.73255573,59.0513848 Z M7.18189924,53.4742333 L7.86522748,53.0776576 L7.56534962,51.2899303 L6.78931908,51.1324152 L6.66852519,50.4089606 L10.7186321,51.2641424 L10.8576855,52.0900515 L7.30269313,54.1990818 L7.18189924,53.4742333 Z M6.43676947,46.5491424 L10.2846168,46.3623545 L10.4138382,48.9794758 L9.81899847,49.0080515 L9.72348702,47.0614152 L8.72553282,47.110203 L8.8189374,49.0164152 L8.2248,49.0456879 L8.13139542,47.1387788 L6.4697771,47.2189303 L6.43676947,46.5491424 Z M45.8190901,14.1191424 C63.4388458,14.1191424 77.7732885,28.3449909 77.7732885,45.8312636 C77.7732885,63.3175364 63.4388458,77.5433848 45.8190901,77.5433848 C28.1993344,77.5433848 13.8648916,63.3175364 13.8648916,45.8312636 C13.8648916,28.3449909 28.1993344,14.1191424 45.8190901,14.1191424 L45.8190901,14.1191424 Z M21.0647695,15.1443848 L23.2067542,17.6360515 C23.9209832,18.4647485 23.7264489,19.3004152 23.0157313,19.9019 C22.6364947,20.2239 22.2066931,20.3988394 21.7129832,20.3451727 L21.5921893,19.6070818 C21.8773191,19.6398394 22.1968611,19.6133545 22.4777771,19.3763848 C22.874571,19.0404455 22.8956397,18.5679 22.5536244,18.1706273 L20.4207695,15.6901121 L21.0647695,15.1443848 Z M25.1759756,12.2122333 C26.4120061,11.4643848 27.8313344,11.8323848 28.5813802,13.0513848 C29.3307237,14.2710818 29.0097771,15.6929 27.7744489,16.4407485 C26.5405252,17.188597 25.1190901,16.8212939 24.3704489,15.6009 C23.6197008,14.381203 23.9406473,12.9593848 25.1759756,12.2122333 L25.1759756,12.2122333 Z M31.1995176,9.23129394 C31.8989985,8.95599091 32.5528305,8.95459697 33.1294107,9.1908697 L32.9109985,9.94917273 C32.4229069,9.73938485 31.8807389,9.76656667 31.4102046,9.95196061 C30.9452885,10.1352636 30.7374107,10.4719 30.8708458,10.8057485 C31.0091969,11.1528394 31.5127389,11.0866273 32.0970443,11.0106576 C32.9117008,10.9068091 33.8829679,10.7869303 34.2692275,11.7557182 C34.5648916,12.4959 34.2938076,13.3371424 33.0837618,13.8131727 C32.2550595,14.1386576 31.5422351,14.0863848 30.9775939,13.8222333 L31.1749374,13.048597 C31.614571,13.254203 32.2136244,13.3510818 32.8393649,13.1057485 C33.4847695,12.8506576 33.6153954,12.4380515 33.498113,12.1439303 C33.3379908,11.7431727 32.8126779,11.8107788 32.2129221,11.8853545 C31.4066931,11.9933848 30.4607084,12.1181424 30.0842809,11.1765364 C29.7907237,10.4412333 30.2170137,9.61811212 31.1995176,9.23129394 L31.1995176,9.23129394 Z M38.6697771,7.1438697 L38.8355176,7.86523333 L36.4364947,8.40817273 L36.7153038,9.61950606 L39.0651664,9.08771818 L39.2302046,9.80908182 L36.8810443,10.3408697 L37.1788153,11.6358394 L39.5771359,11.0929 L39.7428763,11.8142636 L36.5200672,12.5432939 L35.4448611,7.87429394 L38.6697771,7.1438697 Z M44.581655,6.5228697 L44.6378382,7.26026364 L42.1861435,7.44426364 L42.2809527,8.68277879 L44.6827847,8.50226364 L44.7382656,9.23896061 L42.3371359,9.41947576 L42.4944489,11.4804152 L41.6502962,11.5438394 L41.2865099,6.77099091 L44.581655,6.5228697 Z M51.8995176,7.00447576 L52.9403115,7.17802121 L54.0084947,12.2094455 L53.0962198,12.058203 L52.9002809,11.093597 L50.6473344,10.7179303 L50.1437924,11.5654455 L49.2308153,11.4128091 L51.8995176,7.00447576 Z M55.5366779,11.9404152 L58.9638534,9.54283939 L56.6294412,8.75317273 L56.8696244,8.05341515 L60.2448305,9.19435455 L60.0229069,9.83974848 L56.5957313,12.2380212 L58.9778992,13.0430212 L58.7370137,13.7427788 L55.3147542,12.5858091 L55.5366779,11.9404152 Z M64.8848611,11.3919 L64.2844031,16.5006879 L63.468342,16.0678697 L63.5912427,15.0907182 L61.5749679,14.0222636 L60.8263267,14.6676576 L60.0095634,14.2348394 L63.9536244,10.8984455 L64.8848611,11.3919 Z M68.5838229,13.5887485 L69.5150595,14.3296273 L68.506571,17.6576576 L71.5636397,15.9584455 L72.4948763,16.6986273 L69.4806473,20.4350818 L68.8197924,19.9095667 L71.1022351,17.0819606 L67.6624183,18.9909606 L67.3800977,18.7672333 L68.511487,15.0217182 L66.228342,17.8507182 L65.567487,17.3259 L68.5838229,13.5887485 Z M81.8353344,46.3630515 L82.3164031,46.7742636 C82.0003725,47.0558394 81.8409527,47.456597 81.8191817,47.8566576 C81.7974107,48.2518394 81.9743878,48.514597 82.263029,48.5299303 C82.5636092,48.5452636 82.6829985,48.1612333 82.8220519,47.7151727 C83.0186931,47.0927788 83.2539603,46.352597 84.0917924,46.3965061 C84.7315786,46.4306576 85.2561893,46.9073848 85.2014107,47.938203 C85.1627847,48.6435364 84.887487,49.1397788 84.5061435,49.4582939 L84.0068153,49.0589303 C84.303884,48.8101121 84.5735634,48.4107485 84.601655,47.8782636 C84.6311511,47.3276576 84.3727084,47.0955667 84.1184794,47.0823242 C83.7722504,47.064203 83.6465405,47.4649606 83.5004641,47.9235667 C83.3108458,48.5389909 83.086113,49.2624455 82.2721588,49.2199303 C81.6372885,49.1864758 81.1765863,48.6038091 81.2215328,47.7681424 C81.2538382,47.1715364 81.4694412,46.7010818 81.8353344,46.3630515 L81.8353344,46.3630515 Z M45.8190901,3.66459697 C22.3906931,3.66459697 3.33054046,22.5810515 3.33054046,45.8312636 C3.33054046,69.0814758 22.3906931,87.9979303 45.8190901,87.9979303 C69.2467847,87.9979303 88.3076397,69.0814758 88.3076397,45.8312636 C88.3076397,22.5810515 69.2467847,3.66459697 45.8190901,3.66459697 L45.8190901,3.66459697 Z" id="Fill-18" fill="#FEFEFE"></path>
                <path d="M54.009829,80.740803 L53.1073863,80.9436212 L53.3791725,82.1298636 L54.280913,81.9270455 C54.653829,81.8434091 54.8701344,81.547197 54.7879664,81.1896515 C54.7057985,80.8314091 54.3820427,80.6571667 54.009829,80.740803" id="Fill-20" fill="#FEFEFE"></path>
                <path d="M69.7687969,73.3272758 C69.5847969,73.1063364 69.2975603,73.0673061 69.0292855,73.2854576 L68.1963695,73.9698818 L68.8333466,74.7351545 L69.6662626,74.0514273 C69.9338351,73.8325788 69.9527969,73.5482152 69.7687969,73.3272758" id="Fill-22" fill="#FEFEFE"></path>
                <polygon id="Fill-24" fill="#FEFEFE" points="64.0812305 11.7714 63.7314901 14.3271879 62.135887 13.4817636"></polygon>
                <polygon id="Fill-26" fill="#FEFEFE" points="29.0153954 79.7123545 27.7309069 79.0516273 29.2689221 77.6639606"></polygon>
                <path d="M34.1008183,80.3902273 C33.9751084,80.7352273 33.6316885,80.8690455 33.2728183,80.7394091 L32.4033832,80.4271667 L32.8205435,79.2841364 L33.6892763,79.5956818 C34.0481466,79.7253182 34.2265282,80.0452273 34.1008183,80.3902273" id="Fill-28" fill="#FEFEFE"></path>
                <path d="M70.749545,75.305903 L69.8941557,76.0070545 L69.2129344,75.1902061 L70.0683237,74.4883576 C70.3667969,74.2430242 70.6772092,74.3008727 70.8612092,74.5218121 C71.0754076,74.7789939 71.0346748,75.0724182 70.749545,75.305903 L70.749545,75.305903 Z M68.1960183,73.9698121 L69.0296366,73.2860848 C69.2979115,73.0672364 69.5851481,73.1062667 69.7691481,73.3272061 C69.9524458,73.5488424 69.9341863,73.8325091 69.6666137,74.0513576 L68.8329954,74.7350848 L68.1960183,73.9698121 Z" id="Fill-30" fill="#FEFEFE"></path>
                <g id="Group-34">
                    <mask id="mask-2" fill="white">
                        <use xlink:href="#path-1"></use>
                    </mask>
                    <g id="Clip-33"></g>
                    <path d="M45.8189496,89.9090909 C21.3286901,89.9090909 1.40472061,70.1360606 1.40472061,45.8313333 C1.40472061,21.5266061 21.3286901,1.75357576 45.8189496,1.75357576 C70.3092092,1.75357576 90.2331786,21.5266061 90.2331786,45.8313333 C90.2331786,70.1360606 70.3092092,89.9090909 45.8189496,89.9090909 M45.8189496,0.359636364 C20.5540641,0.359636364 0.000140458015,20.7578485 0.000140458015,45.8313333 C0.000140458015,70.9041212 20.5540641,91.3030303 45.8189496,91.3030303 C71.0838351,91.3030303 91.6377588,70.9041212 91.6377588,45.8313333 C91.6377588,20.7578485 71.0838351,0.359636364 45.8189496,0.359636364" id="Fill-32" fill="#FEFEFE" mask="url(#mask-2)"></path>
                </g>
                <path d="M44.5429588,65.4350697 C44.4495542,65.5054636 44.3596611,65.5786455 44.2788977,65.6615848 C44.6700733,66.0644333 44.9137679,66.6101606 44.9137679,67.2123424 C44.9137679,67.8152212 44.6700733,68.3602515 44.2788977,68.7631 C44.3596611,68.8467364 44.4495542,68.9199182 44.5429588,68.9896152 C44.9875084,68.5254333 45.264913,67.9016455 45.264913,67.2123424 C45.264913,66.5230394 44.9875084,65.8992515 44.5429588,65.4350697" id="Fill-35" fill="#FEFEFE"></path>
                <path d="M44.0142046,68.9898939 C43.6356702,69.2756515 43.1686473,69.4519848 42.6573802,69.4519848 C41.4129221,69.4519848 40.4009221,68.4469545 40.4009221,67.2126212 C40.4009221,65.9775909 41.4129221,64.9732576 42.6573802,64.9732576 C43.1686473,64.9732576 43.6356702,65.1495909 44.0142046,65.4353485 C44.0956702,65.3503182 44.1862656,65.2757424 44.2782656,65.2018636 C43.8316092,64.8464091 43.2732885,64.6247727 42.6573802,64.6247727 C41.2197924,64.6247727 40.0497771,65.7859242 40.0497771,67.2126212 C40.0497771,68.6393182 41.2197924,69.8004697 42.6573802,69.8004697 C43.2732885,69.8004697 43.8316092,69.5781364 44.2782656,69.2226818 C44.1862656,69.1495 44.0956702,69.0749242 44.0142046,68.9898939" id="Fill-37" fill="#FEFEFE"></path>
                <path d="M44.5429588,65.4350697 C44.9214931,65.1493121 45.388516,64.9729788 45.8997832,64.9729788 C46.368913,64.9729788 46.8043328,65.1165545 47.1660122,65.3604939 C47.2509893,65.2782515 47.3443939,65.2057667 47.4399053,65.1360697 C47.0072947,64.8182515 46.4777679,64.6244939 45.8997832,64.6244939 C45.2838748,64.6244939 44.7255542,64.8468273 44.2788977,65.2022818 C44.3708977,65.2754636 44.4614931,65.3500394 44.5429588,65.4350697" id="Fill-39" fill="#FEFEFE"></path>
                <path d="M45.8998534,69.4517758 C45.3885863,69.4517758 44.9215634,69.2754424 44.543029,68.9896848 C44.4615634,69.0747152 44.3709679,69.1492909 44.2782656,69.2231697 C44.7249221,69.5786242 45.283945,69.8002606 45.8998534,69.8002606 C46.4778382,69.8002606 47.0073649,69.606503 47.4399756,69.2893818 C47.3444641,69.2189879 47.2510595,69.146503 47.1660824,69.0642606 C46.8044031,69.3082 46.3689832,69.4517758 45.8998534,69.4517758" id="Fill-41" fill="#FEFEFE"></path>
                <path d="M48.1562412,67.2124818 C48.1562412,67.8550879 47.8781344,68.4307848 47.4399053,68.8399061 C47.5269893,68.9200576 47.6161802,68.9981182 47.7145008,69.0643303 C48.2018901,68.5938758 48.5073863,67.9387242 48.5073863,67.2124818 C48.5073863,66.4862394 48.2018901,65.8310879 47.7145008,65.3606333 C47.6161802,65.4268455 47.5269893,65.5049061 47.4399053,65.5850576 C47.8781344,65.9941788 48.1562412,66.5698758 48.1562412,67.2124818" id="Fill-43" fill="#FEFEFE"></path>
                <path d="M44.2785466,65.6617939 C44.1977832,65.5781576 44.1071878,65.5049758 44.0144855,65.4352788 C43.5699359,65.8994606 43.2925313,66.5232485 43.2925313,67.2125515 C43.2925313,67.9018545 43.5699359,68.5256424 44.0144855,68.9898242 C44.1071878,68.9194303 44.1977832,68.8462485 44.2785466,68.7633091 C43.887371,68.3604606 43.6436763,67.8147333 43.6436763,67.2125515 C43.6436763,66.6103697 43.887371,66.0646424 44.2785466,65.6617939" id="Fill-45" fill="#FEFEFE"></path>
                <path d="M44.0142046,65.4350697 C44.1076092,65.5054636 44.1975023,65.5786455 44.2782656,65.6615848 C44.3597313,65.5786455 44.4496244,65.5054636 44.543029,65.4350697 C44.4615634,65.3500394 44.3709679,65.2754636 44.2782656,65.2022818 C44.1862656,65.2754636 44.0956702,65.3500394 44.0142046,65.4350697" id="Fill-47" fill="#FEFEFE"></path>
                <path d="M44.5429588,68.9898939 C44.4495542,68.9195 44.3596611,68.8463182 44.2788977,68.7633788 C44.1974321,68.8463182 44.1075389,68.9195 44.0141344,68.9898939 C44.0956,69.0749242 44.1861954,69.1495 44.2788977,69.2226818 C44.3708977,69.1495 44.4614931,69.0749242 44.5429588,68.9898939" id="Fill-49" fill="#FEFEFE"></path>
                <path d="M48.9805893,64.624703 C48.4026046,64.624703 47.8730779,64.8184606 47.4404672,65.1355818 C47.5359786,65.2059758 47.6293832,65.2784606 47.7143603,65.360703 C48.0760397,65.1167636 48.5114595,64.9731879 48.9805893,64.9731879 C50.224345,64.9731879 51.2370473,65.9775212 51.2370473,67.2125515 C51.2370473,68.4468848 50.224345,69.4519152 48.9805893,69.4519152 C48.5114595,69.4519152 48.0760397,69.3083394 47.7143603,69.0644 C47.6293832,69.1466424 47.5359786,69.2191273 47.4404672,69.2888242 C47.8730779,69.6066424 48.4026046,69.8004 48.9805893,69.8004 C50.4181771,69.8004 51.5881924,68.6392485 51.5881924,67.2125515 C51.5881924,65.7858545 50.4181771,64.624703 48.9805893,64.624703" id="Fill-51" fill="#FEFEFE"></path>
                <path d="M46.7242718,67.2124818 C46.7242718,66.5698758 47.0023786,65.9941788 47.4406076,65.5850576 C47.3535237,65.5049061 47.2643328,65.4268455 47.1660122,65.3606333 C46.6786229,65.8310879 46.3731267,66.4862394 46.3731267,67.2124818 C46.3731267,67.9387242 46.6786229,68.5938758 47.1660122,69.0643303 C47.2643328,68.9981182 47.3535237,68.9200576 47.4406076,68.8399061 C47.0023786,68.4307848 46.7242718,67.8550879 46.7242718,67.2124818" id="Fill-53" fill="#FEFEFE"></path>
                <path d="M47.4402565,65.5852667 C47.5266382,65.5044182 47.615829,65.4270545 47.7148519,65.3608424 C47.6298748,65.2786 47.5357679,65.2061152 47.4402565,65.1357212 C47.344745,65.2061152 47.2506382,65.2786 47.1656611,65.3608424 C47.264684,65.4270545 47.3538748,65.5044182 47.4402565,65.5852667" id="Fill-55" fill="#FEFEFE"></path>
                <path d="M47.4402565,68.839697 C47.3538748,68.9205455 47.264684,68.9979091 47.1656611,69.0641212 C47.2506382,69.1463636 47.344745,69.2188485 47.4402565,69.2892424 C47.5357679,69.2188485 47.6298748,69.1463636 47.7148519,69.0641212 C47.615829,68.9979091 47.5266382,68.9205455 47.4402565,68.839697" id="Fill-57" fill="#FEFEFE"></path>
                <polygon id="Fill-59" fill="#FEFEFE" points="47.6029771 58.857 49.6002901 52.7473636 49.6038015 52.7473636 51.0449008 48.2923333 51.0336641 48.2923333 56.485542 31.7121212 62.0308244 48.2923333 62.0238015 48.2923333 63.4318931 52.7473636 63.4410229 52.7473636 65.4853893 58.857 71.806 58.857 60.9738779 27.024303 51.8328702 27.024303 41.1643817 58.857"></polygon>
                <polygon id="Fill-61" fill="#FEFEFE" points="44.5381832 41.8387424 44.535374 27.0608939 32.9609313 27.0608939 32.8991298 33.1015303 38.4135115 33.1015303 38.4135115 52.8341364 25.9555878 52.8376212 25.9499695 48.2912879 19.8316183 48.2912879 19.8611145 58.8594394 38.8341832 58.8594394"></polygon>
            </g>
        </g>
    </g>
</svg>